<svg viewBox="0 0 400 280" xmlns="http://www.w3.org/2000/svg" font-family="-apple-system, BlinkMacSystemFont, sans-serif">
  <!-- Paper background -->
  <rect width="400" height="280" fill="#FFFFFF" rx="4"/>
  <rect width="400" height="280" fill="none" stroke="#E5E7EB" stroke-width="1" rx="4"/>

  <!-- Company logo area -->
  <rect x="24" y="20" width="60" height="24" rx="4" fill="#3B82F6" opacity="0.15"/>
  <text x="54" y="36" font-size="10" fill="#3B82F6" text-anchor="middle" font-weight="600">AGL</text>

  <!-- Invoice title -->
  <text x="376" y="32" font-size="14" fill="#1A1A1A" text-anchor="end" font-weight="700">TAX INVOICE</text>
  <text x="376" y="46" font-size="9" fill="#6B7280" text-anchor="end">INV-2026-04-0892</text>

  <!-- Divider -->
  <line x1="24" y1="60" x2="376" y2="60" stroke="#E5E7EB" stroke-width="1"/>

  <!-- Bill to section -->
  <text x="24" y="80" font-size="8" fill="#9CA3AF" font-weight="600" letter-spacing="0.5">BILL TO</text>
  <rect x="24" y="88" width="140" height="8" rx="2" fill="#F3F4F6"/>
  <rect x="24" y="100" width="100" height="8" rx="2" fill="#F3F4F6"/>

  <!-- Due date section -->
  <text x="240" y="80" font-size="8" fill="#9CA3AF" font-weight="600" letter-spacing="0.5">DUE DATE</text>
  <text x="240" y="96" font-size="12" fill="#DC3545" font-weight="600">April 10, 2026</text>

  <!-- Table header -->
  <rect x="24" y="120" width="352" height="24" rx="2" fill="#F9FAFB"/>
  <text x="32" y="136" font-size="8" fill="#6B7280" font-weight="600">DESCRIPTION</text>
  <text x="310" y="136" font-size="8" fill="#6B7280" font-weight="600" text-anchor="end">AMOUNT</text>

  <!-- Line items -->
  <text x="32" y="160" font-size="10" fill="#374151">Electricity usage — Q1 2026</text>
  <text x="310" y="160" font-size="10" fill="#374151" text-anchor="end">$198.40</text>

  <line x1="24" y1="170" x2="376" y2="170" stroke="#F3F4F6" stroke-width="1"/>

  <text x="32" y="188" font-size="10" fill="#374151">Supply charge (91 days)</text>
  <text x="310" y="188" font-size="10" fill="#374151" text-anchor="end">$26.60</text>

  <line x1="24" y1="198" x2="376" y2="198" stroke="#F3F4F6" stroke-width="1"/>

  <text x="32" y="216" font-size="10" fill="#374151">GST</text>
  <text x="310" y="216" font-size="10" fill="#374151" text-anchor="end">$22.50</text>

  <!-- Total -->
  <line x1="200" y1="230" x2="376" y2="230" stroke="#1A1A1A" stroke-width="2"/>
  <text x="200" y="252" font-size="12" fill="#1A1A1A" font-weight="700">TOTAL DUE</text>
  <rect x="280" y="238" width="96" height="24" rx="4" fill="#DBEAFE"/>
  <text x="328" y="255" font-size="14" fill="#1D4ED8" text-anchor="middle" font-weight="700">$247.50</text>

  <!-- BPAY -->
  <rect x="24" y="238" width="64" height="20" rx="4" fill="#374151"/>
  <text x="56" y="252" font-size="8" fill="white" text-anchor="middle" font-weight="600">BPAY</text>
  <text x="96" y="252" font-size="9" fill="#6B7280">Biller: 87432 | Ref: 4421 8892</text>
</svg>
